<svg id="Calque_1" data-name="Calque 1" xmlns="http://www.w3.org/2000/svg" width="288" height="94.51" viewBox="0 0 288 94.51"><defs><style>.cls-1{fill:#003764;}.cls-2{fill:#54a51c;}</style></defs><title>logo-trs</title><path class="cls-1" d="M157.5,6.44h11.75v11.3H157.5V35.59c0,2.09.34,3.56,1.08,4.35s2,1.24,3.95,1.24a17.978,17.978,0,0,0,2.37-.11c.85-.11,1.87-.23,3-.34l.9,8.87a50.973,50.973,0,0,1-5.2,1.24,30.83,30.83,0,0,1-5.36.57q-5.6,0-8.82-2.88c-2.14-1.92-3.22-5.14-3.22-9.55V0h11.3Z"/><path class="cls-1" d="M203,6.78c-.28,1.81-.62,3.61-1,5.48s-.73,3.67-1,5.48a40.6,40.6,0,0,0-6.66-.74c-3.05,0-5.42.74-7.06,2.15s-2.43,4-2.43,7.74V50.45H173.32v-44h11.47v5.48H185a12.759,12.759,0,0,1,5.14-4.86,14.212,14.212,0,0,1,6.49-1.52A17.5,17.5,0,0,1,203,6.78"/><path class="cls-1" d="M239,38a12.066,12.066,0,0,1-1.35,5.76A11.188,11.188,0,0,1,233.82,48a17.713,17.713,0,0,1-5.76,2.54,26.457,26.457,0,0,1-7.29.91,34.368,34.368,0,0,1-9.2-1.3,36.826,36.826,0,0,1-8.57-3.6l3.9-8.13a29.751,29.751,0,0,0,7.28,3,23.985,23.985,0,0,0,6.44,1,11.833,11.833,0,0,0,4.81-1,3.281,3.281,0,0,0,2.14-3.22,4,4,0,0,0-2.14-3.73,28.715,28.715,0,0,0-5.94-2.31c-5-1.53-8.75-3.28-11.29-5.31a10.261,10.261,0,0,1-3.79-8.53A11.321,11.321,0,0,1,209,9c3.11-2.37,7.35-3.56,12.77-3.56a33.8,33.8,0,0,1,16,3.9l-3.61,8.31A25.1,25.1,0,0,0,227.27,15a29.205,29.205,0,0,0-5.25-.56,8.174,8.174,0,0,0-4.52,1.13,3.1,3.1,0,0,0-1.7,2.59A3.621,3.621,0,0,0,217.27,21a16.131,16.131,0,0,0,5.37,2.26,64.5,64.5,0,0,1,6.78,2.31,20.8,20.8,0,0,1,5.14,2.94,11.311,11.311,0,0,1,3.22,4.07A11.889,11.889,0,0,1,239,38"/><polygon class="cls-2" points="150.38 75.31 152.08 75.31 152.08 64.52 155.86 64.52 155.86 62.93 146.66 62.93 146.66 64.52 150.38 64.52 150.38 75.31"/><path class="cls-2" d="M161.06,75.3h1.75V71l4.52-8h-2c-.28.57-.56,1.08-.84,1.64s-.57,1.07-.85,1.58-.57,1.13-.85,1.64-.56,1.07-.85,1.64c-.28-.57-.56-1.13-.84-1.64s-.57-1.07-.85-1.64-.57-1.13-.85-1.64-.56-1.07-.84-1.63h-2l4.52,8v4.4Z"/><path class="cls-2" d="M176.26,75.3h1.92l-2.43-5a3.627,3.627,0,0,0,1.86-1.3,3.688,3.688,0,0,0,.68-2.31A5.343,5.343,0,0,0,178,65a4.606,4.606,0,0,0-.85-1.18,3.06,3.06,0,0,0-1.3-.68,5.007,5.007,0,0,0-1.64-.23H169V75.3h1.75V70.5h3.27Zm-5.43-10.84h3.39a2.309,2.309,0,0,1,1.7.56,2.058,2.058,0,0,1,.62,1.64,2.34,2.34,0,0,1-.62,1.7,2.48,2.48,0,0,1-1.75.62h-3.39V64.46Z"/><polygon class="cls-2" points="189.14 73.72 182.53 73.72 182.53 69.54 187.05 69.54 187.05 67.9 182.53 67.9 182.53 64.52 188.91 64.52 188.91 62.93 180.72 62.93 180.72 75.31 189.14 75.31 189.14 73.72"/><path class="cls-2" d="M202.64,70.28A3.627,3.627,0,0,0,204.5,69a3.688,3.688,0,0,0,.68-2.31,5.37,5.37,0,0,0-.28-1.7,3.527,3.527,0,0,0-.85-1.18,3.06,3.06,0,0,0-1.3-.68,5.209,5.209,0,0,0-1.64-.23h-5.19V75.3h1.75V70.5h3.27l2.21,4.8h1.92Zm-5-1.25V64.51h3.39a2.249,2.249,0,0,1,1.69.57,2.058,2.058,0,0,1,.62,1.64,2.269,2.269,0,0,1-.62,1.69A2.411,2.411,0,0,1,201,69Z"/><polygon class="cls-2" points="216.03 73.72 209.36 73.72 209.36 69.54 213.88 69.54 213.88 67.9 209.36 67.9 209.36 64.52 215.75 64.52 215.75 62.93 207.61 62.93 207.61 75.31 216.03 75.31 216.03 73.72"/><path class="cls-2" d="M225.24,75a4.625,4.625,0,0,0,1.69-1.42l-1.24-1.13a3.65,3.65,0,0,1-2.83,1.42,2.812,2.812,0,0,1-1.52-.4,3.2,3.2,0,0,1-1.13-1,6.38,6.38,0,0,1-.68-1.52A6.517,6.517,0,0,1,219.3,69a7.149,7.149,0,0,1,.23-1.92,6.38,6.38,0,0,1,.68-1.52,3.026,3.026,0,0,1,4.01-1,4.289,4.289,0,0,1,1.3,1l1.24-1.18a5.554,5.554,0,0,0-1.69-1.36,5.933,5.933,0,0,0-2.32-.45,5.288,5.288,0,0,0-2.15.45,4.792,4.792,0,0,0-1.69,1.3,5.744,5.744,0,0,0-1.07,2,9.19,9.19,0,0,0-.4,2.65,7.842,7.842,0,0,0,.4,2.71,5.846,5.846,0,0,0,1.07,2,4.178,4.178,0,0,0,1.69,1.24,5.288,5.288,0,0,0,2.15.45A6.453,6.453,0,0,0,225.24,75Z"/><path class="cls-2" d="M234.16,75.3V71l4.52-8h-2c-.28.57-.56,1.08-.84,1.64s-.57,1.07-.85,1.58-.57,1.13-.85,1.64-.56,1.07-.84,1.64c-.29-.57-.57-1.13-.85-1.64s-.57-1.07-.85-1.64-.56-1.13-.85-1.64-.56-1.07-.84-1.63h-2l4.52,8V75.3h1.73Z"/><path class="cls-2" d="M245,73.89a2.842,2.842,0,0,1-1.53-.39,3.3,3.3,0,0,1-1.13-1,6.246,6.246,0,0,1-.67-1.53,6.417,6.417,0,0,1-.23-1.86,7.11,7.11,0,0,1,.23-1.92,6.436,6.436,0,0,1,.67-1.53,3.657,3.657,0,0,1,1.08-1,3.417,3.417,0,0,1,2.93,0,4.245,4.245,0,0,1,1.3,1l1.25-1.19a6.576,6.576,0,0,0-1.7-1.35,5.888,5.888,0,0,0-2.31-.45,5.255,5.255,0,0,0-2.15.45,4.644,4.644,0,0,0-1.7,1.3,5.872,5.872,0,0,0-1.07,2,9.618,9.618,0,0,0-.39,2.66,8.141,8.141,0,0,0,.39,2.71,5.872,5.872,0,0,0,1.07,2,4.243,4.243,0,0,0,1.7,1.25,5.255,5.255,0,0,0,2.15.45,5.323,5.323,0,0,0,2.43-.51A4.6,4.6,0,0,0,249,73.67l-1.24-1.13A3.5,3.5,0,0,1,245,73.89Z"/><polygon class="cls-2" points="252.97 62.93 251.17 62.93 251.17 75.31 259.3 75.31 259.3 73.72 252.97 73.72 252.97 62.93"/><rect class="cls-2" x="261.28" y="62.93" width="1.81" height="12.37"/><path class="cls-2" d="M273.93,72.14h-.05l-2-3.16c-.23-.4-.57-.85-.9-1.41s-.74-1.08-1.13-1.64-.74-1.13-1.08-1.64-.68-1-.9-1.41h-1.7V75.25H268V65.87h0l1.3,2c.23.34.45.68.74,1.13a16.153,16.153,0,0,0,.9,1.36c.34.45.62,1,1,1.47s.62,1,.9,1.41.57.85.79,1.19.4.62.57.84h1.58V62.93H274v9.21Z"/><path class="cls-2" d="M284.27,69.09v1.53h2a7.392,7.392,0,0,1-.12,1.07,2.472,2.472,0,0,1-.45,1.07,2.72,2.72,0,0,1-.9.85,3,3,0,0,1-1.53.34,3.292,3.292,0,0,1-1.52-.34,3.475,3.475,0,0,1-1.13-1,4.626,4.626,0,0,1-.68-1.53,6.991,6.991,0,0,1-.23-2,6.524,6.524,0,0,1,.23-1.87,3.99,3.99,0,0,1,.68-1.47,3.547,3.547,0,0,1,1.07-1,2.906,2.906,0,0,1,1.47-.34A3.67,3.67,0,0,1,286,65.81l1.3-1.18a4.471,4.471,0,0,0-1.75-1.36,5.88,5.88,0,0,0-2.32-.45,5.205,5.205,0,0,0-2.14.45,5.353,5.353,0,0,0-1.7,1.24,7.016,7.016,0,0,0-1.07,2,9.479,9.479,0,0,0-.4,2.65,9.991,9.991,0,0,0,.34,2.66,5.788,5.788,0,0,0,1,2,4.445,4.445,0,0,0,1.64,1.3,5.788,5.788,0,0,0,2.26.45,5.334,5.334,0,0,0,2-.34,3.54,3.54,0,0,0,1.52-1,4.479,4.479,0,0,0,1-1.64A6.257,6.257,0,0,0,288,70.5V69.2h-3.73Z"/><path class="cls-2" d="M154.62,88.19a6.539,6.539,0,0,0-1.47-.68q-.765-.255-1.47-.51c-.28-.11-.56-.17-.84-.28a3.247,3.247,0,0,1-.74-.4,2.466,2.466,0,0,1-.51-.51,1.431,1.431,0,0,1-.22-.73,1.52,1.52,0,0,1,.56-1.24,2.539,2.539,0,0,1,1.7-.51,5,5,0,0,1,3.16,1.07,1.535,1.535,0,0,0,.17-.23c.11-.11.23-.28.34-.39a2.322,2.322,0,0,1,.34-.4,1.1,1.1,0,0,0,.17-.22,5.911,5.911,0,0,0-1.81-1,6.821,6.821,0,0,0-2.2-.34,4.922,4.922,0,0,0-3,.91,3.173,3.173,0,0,0-.9,1.07,3.255,3.255,0,0,0-.06,2.77,2.678,2.678,0,0,0,.79,1,3.8,3.8,0,0,0,1.25.68c.5.16,1,.39,1.63.56a11.085,11.085,0,0,1,1.19.4,3.165,3.165,0,0,1,.9.45,2.524,2.524,0,0,1,.57.56,1.3,1.3,0,0,1,.22.79,1.53,1.53,0,0,1-.73,1.47,4.005,4.005,0,0,1-2,.45,4.721,4.721,0,0,1-1.75-.33,5.581,5.581,0,0,1-1.58-1l-1.13,1.3a6.7,6.7,0,0,0,1.92,1.24,7.007,7.007,0,0,0,2.43.45,5.57,5.57,0,0,0,3.45-1A3.089,3.089,0,0,0,156.2,91a3.179,3.179,0,0,0-.45-1.69A3.408,3.408,0,0,0,154.62,88.19Z"/><path class="cls-2" d="M167,83.5a4.363,4.363,0,0,0-1.64-1.3,5.049,5.049,0,0,0-2.14-.46,4.905,4.905,0,0,0-2.26.51,4.733,4.733,0,0,0-1.64,1.36,5.788,5.788,0,0,0-1,2,9.7,9.7,0,0,0,0,5.09,5.788,5.788,0,0,0,1,2,4.453,4.453,0,0,0,1.64,1.3,4.8,4.8,0,0,0,2.2.45,5.676,5.676,0,0,0,2.2-.45A4.363,4.363,0,0,0,167,92.7a7.1,7.1,0,0,0,1.08-2,9.5,9.5,0,0,0,.39-2.6,7.652,7.652,0,0,0-.39-2.6A7.1,7.1,0,0,0,167,83.5Zm-.63,6.5a4.626,4.626,0,0,1-.68,1.53,2.689,2.689,0,0,1-1.07,1,3.1,3.1,0,0,1-4.12-1,4.53,4.53,0,0,1-.63-1.53,6.417,6.417,0,0,1-.22-1.86,7.141,7.141,0,0,1,.22-1.92,5.859,5.859,0,0,1,.63-1.53,3.7,3.7,0,0,1,1.07-1,3.592,3.592,0,0,1,3.05,0,2.592,2.592,0,0,1,1.07,1,5.239,5.239,0,0,1,.68,1.53,6.833,6.833,0,0,1,.23,1.92A6.417,6.417,0,0,1,166.37,90Z"/><polygon class="cls-2" points="172.64 81.97 170.89 81.97 170.89 94.34 178.97 94.34 178.97 92.7 172.64 92.7 172.64 81.97"/><path class="cls-2" d="M188.52,89.2a4.278,4.278,0,0,1-.74,2.71,3,3,0,0,1-4.52,0,4.607,4.607,0,0,1-.73-2.82V82h-1.81v7.18a5.653,5.653,0,0,0,1.24,4,4.539,4.539,0,0,0,3.51,1.35,4.787,4.787,0,0,0,3.55-1.3,5.582,5.582,0,0,0,1.3-4V82h-1.8Z"/><polygon class="cls-2" points="192.13 83.55 195.86 83.55 195.86 94.34 197.61 94.34 197.61 83.55 201.34 83.55 201.34 81.97 192.13 81.97 192.13 83.55"/><rect class="cls-2" x="203.49" y="81.97" width="1.81" height="12.37"/><path class="cls-2" d="M217.1,83.5a4.453,4.453,0,0,0-1.64-1.3,5.049,5.049,0,0,0-2.14-.46,4.878,4.878,0,0,0-2.26.51,4.733,4.733,0,0,0-1.64,1.36,5.788,5.788,0,0,0-1,2,9.7,9.7,0,0,0,0,5.09,5.788,5.788,0,0,0,1,2,4.453,4.453,0,0,0,1.64,1.3,4.771,4.771,0,0,0,2.2.45,5.676,5.676,0,0,0,2.2-.45,4.453,4.453,0,0,0,1.64-1.3,6.869,6.869,0,0,0,1.07-2,9.134,9.134,0,0,0,.4-2.6,7.435,7.435,0,0,0-.4-2.6A6.869,6.869,0,0,0,217.1,83.5Zm-.62,6.5a4.626,4.626,0,0,1-.68,1.53,2.689,2.689,0,0,1-1.07,1,3.182,3.182,0,0,1-3,0,3.281,3.281,0,0,1-1.08-1A4.751,4.751,0,0,1,210,90a6.417,6.417,0,0,1-.22-1.86,7.141,7.141,0,0,1,.22-1.92,6.22,6.22,0,0,1,.62-1.53,3.872,3.872,0,0,1,1.08-1,3.589,3.589,0,0,1,3,0,2.592,2.592,0,0,1,1.07,1,5.539,5.539,0,0,1,.68,1.53,6.833,6.833,0,0,1,.23,1.92A6.409,6.409,0,0,1,216.48,90Z"/><path class="cls-2" d="M228.74,91.18h0l-2-3.16c-.23-.4-.57-.85-.91-1.42s-.73-1.07-1.13-1.63-.73-1.13-1.07-1.64-.68-1-.91-1.42H221V94.29h1.75V84.91h.06l1.3,2c.22.34.45.68.73,1.13s.57.91.9,1.36.63,1,1,1.47.62,1,.9,1.41.56.85.79,1.19.4.62.57.84h1.58V82H228.8v9.21Z"/><path class="cls-2" d="M240.32,88.19a6.539,6.539,0,0,0-1.47-.68q-.765-.255-1.47-.51c-.28-.11-.56-.17-.84-.28a3.247,3.247,0,0,1-.74-.4,2.2,2.2,0,0,1-.51-.51,1.431,1.431,0,0,1-.22-.73,1.52,1.52,0,0,1,.56-1.24,2.539,2.539,0,0,1,1.7-.51,5,5,0,0,1,3.16,1.07,1.469,1.469,0,0,0,.17-.23c.11-.11.23-.28.34-.39a2.322,2.322,0,0,1,.34-.4,1.1,1.1,0,0,0,.17-.22,5.911,5.911,0,0,0-1.81-1,6.821,6.821,0,0,0-2.2-.34,4.922,4.922,0,0,0-3,.91,3.173,3.173,0,0,0-.9,1.07,3.255,3.255,0,0,0-.06,2.77,2.678,2.678,0,0,0,.79,1,3.871,3.871,0,0,0,1.24.68c.51.16,1,.39,1.64.56a11.79,11.79,0,0,1,1.19.4,3.165,3.165,0,0,1,.9.45,2.524,2.524,0,0,1,.57.56,1.9,1.9,0,0,1,.22.79,1.53,1.53,0,0,1-.73,1.47,4.005,4.005,0,0,1-2,.45,4.721,4.721,0,0,1-1.75-.33,4.874,4.874,0,0,1-1.58-1l-1.13,1.3a6.7,6.7,0,0,0,1.92,1.24,6.911,6.911,0,0,0,2.43.45,5.6,5.6,0,0,0,3.45-1A3.089,3.089,0,0,0,241.9,91a3.179,3.179,0,0,0-.45-1.69A3.408,3.408,0,0,0,240.32,88.19Z"/><path class="cls-1" d="M25.2,64.51a55.044,55.044,0,0,0,1,10.63H0A64.451,64.451,0,0,1,63.89,10.51a56.67,56.67,0,0,0-38.69,54"/><path class="cls-1" d="M66.83,10.73V37.4c-32.37,0-37.62,30.45-38.08,37.68a55.251,55.251,0,0,1-1-10.62A56.629,56.629,0,0,1,66.83,10.73"/><path class="cls-1" d="M108.47,10.62a54.935,54.935,0,0,0-1-10.62h26.16A64.53,64.53,0,0,1,69.77,64.68a56.871,56.871,0,0,0,38.7-54.06"/><path class="cls-1" d="M66.83,64.4V37.68C99.2,37.68,104.46,7.23,104.91,0a55.251,55.251,0,0,1,1,10.62A56.691,56.691,0,0,1,66.83,64.4"/></svg>